<?xml version="1.0" encoding="utf-8"?>
<!-- Generator: Adobe Illustrator 16.0.0, SVG Export Plug-In . SVG Version: 6.00 Build 0)  -->
<!DOCTYPE svg PUBLIC "-//W3C//DTD SVG 1.1//EN" "http://www.w3.org/Graphics/SVG/1.1/DTD/svg11.dtd">
<svg version="1.1" id="图层_1" xmlns="http://www.w3.org/2000/svg" xmlns:xlink="http://www.w3.org/1999/xlink" x="0px" y="0px"
	 width="300px" height="246px" viewBox="0 0 300 246" enable-background="new 0 0 300 246" xml:space="preserve">
<path fill="#61707E" d="M288,0H12C5.373,0,0,5.373,0,12v222c0,6.627,5.373,12,12,12h276c6.627,0,12-5.373,12-12V12
	C300,5.373,294.627,0,288,0z M90.696,103.986c-9.376,0-16.977-7.601-16.977-16.977s7.601-16.977,16.977-16.977
	s16.977,7.601,16.977,16.977S100.072,103.986,90.696,103.986z"/>
<circle fill="#61707E" stroke="#000000" stroke-miterlimit="10" cx="90.696" cy="87.01" r="16.977"/>
<path fill="#D2E1E1" d="M166.278,12.307H15.004c-1.565,0-2.834,1.269-2.834,2.834v144.66c0,1.565,1.269,2.835,2.834,2.835h151.273
	c1.566,0,2.835-1.27,2.835-2.835V15.141C169.113,13.576,167.844,12.307,166.278,12.307z M90.696,103.986
	c-9.376,0-16.977-7.601-16.977-16.977s7.601-16.977,16.977-16.977s16.977,7.601,16.977,16.977S100.072,103.986,90.696,103.986z"/>
<circle fill="#D2E1E1" stroke="#000000" stroke-miterlimit="10" cx="90.696" cy="87.01" r="16.977"/>
<path fill="#F9EC23" d="M181.016,12.307h103.98c1.565,0,2.835,1.269,2.835,2.834v147.495H181.016V12.307z"/>
<g>
	<path fill="#FFFFFF" stroke="#000000" stroke-miterlimit="10" d="M204.808,38.11l11.777-15.965h11.254l-11.777,16.488h36.379
		c1.047,0.352,1.57-0.348,1.57-2.094v-7.328h9.16v10.469c0.523,5.41-1.746,7.766-6.805,7.066h-51.559V38.11z M205.07,82.079V50.673
		h57.84v23.293c0.348,5.93-2.617,8.637-8.898,8.113H205.07z M253.749,58.786h-39.258v15.441h36.902
		c1.57,0.176,2.355-0.695,2.355-2.617V58.786z"/>
</g>
<path fill="#F9EC23" d="M287.831,175.015v55.844c0,1.565-1.27,2.835-2.835,2.835H104.363v-58.679H287.831z"/>
<path fill="#F9EC23" d="M92.936,233.693H15.004c-1.565,0-2.834-1.27-2.834-2.835v-55.844h80.767
	C92.937,175.015,92.937,233.693,92.936,233.693z"/>
<g>
	<path fill="#FFFFFF" stroke="#000000" stroke-miterlimit="10" d="M206.64,144.294V93.782h56.27v51.035
		c-0.176,1.047,0.434,1.746,1.832,2.094v6.543h-7.852c-1.57,0-2.707-0.699-3.402-2.094h-10.207c-2.094,0-3.402-0.785-3.926-2.355
		l-4.711-8.375l-4.188,7.328c-1.047,2.266-2.707,3.402-4.973,3.402h-9.422c-0.523,1.57-1.66,2.266-3.402,2.094h-8.113v-7.328
		C206.116,146.302,206.812,145.692,206.64,144.294z M252.702,144.032v-42.137h-36.117v42.137h3.926
		c1.219,0.176,1.918-0.172,2.094-1.047l6.805-12.039l-12.563-24.34h10.469l7.59,14.656l7.59-14.656h9.684l-12.301,24.078
		l6.281,11.516c0.523,1.398,1.309,2.008,2.355,1.832H252.702z"/>
</g>
<g>
	<path fill="#FFFFFF" stroke="#000000" stroke-miterlimit="10" d="M32.914,190.135v-4.957h4.59v-1.836h6.426v1.836h18.543v-2.02
		h6.242v2.02h5.141v4.957h-5.141v2.203h5.324v5.141H56.597v2.203h16.707v12.852c0.611,4.652-1.715,6.672-6.977,6.059h-2.203
		l0.734,0.918c0,0.123,0.06,0.246,0.184,0.367c0.855,0.613,1.529,0.857,2.02,0.734h6.977v4.59H63.574
		c-1.959-0.247-3.245-0.734-3.855-1.469l-4.223-5.141h-3.488l-4.957,4.773c-1.469,1.589-3.245,2.323-5.324,2.203h-8.629v-4.773
		h7.527c0.734,0,1.469-0.367,2.203-1.102l0.918-1.102H33.648v-18.91h16.34v-2.203H32.914v-5.141h4.59v-2.203H32.914z
		 M49.804,206.658v-2.02h-9.73v2.02H49.804z M49.804,211.615h-9.73v2.203h9.73V211.615z M43.929,192.338h18.359v-2.203H43.929
		V192.338z M56.597,206.658h10.465v-2.02H56.597V206.658z M67.246,211.615H56.781v2.203h9.914c0.367,0,0.551-0.244,0.551-0.734
		V211.615z"/>
</g>
<g>
	<path fill="#FFFFFF" stroke="#000000" stroke-miterlimit="10" d="M128.004,189.466h16.944v7.424h-5.685v22.641h-5.574V196.89
		h-5.685V189.466z"/>
	<path fill="#FFFFFF" stroke="#000000" stroke-miterlimit="10" d="M145.649,189.466h6.192l3.635,10.143l3.642-10.143h6.158
		l-7.014,17.473v12.592h-5.586v-12.592L145.649,189.466z"/>
	<path fill="#FFFFFF" stroke="#000000" stroke-miterlimit="10" d="M167.047,189.466h9.266c2.018,0,3.529,0.8,4.534,2.399
		s1.507,3.876,1.507,6.829c0,3.035-0.547,5.407-1.643,7.116c-1.095,1.709-2.767,2.563-5.014,2.563h-3.052v11.156h-5.599V189.466z
		 M172.646,202.283h1.366c1.074,0,1.829-0.311,2.264-0.933s0.652-1.419,0.652-2.39c0-0.943-0.188-1.743-0.566-2.399
		c-0.377-0.656-1.087-0.984-2.129-0.984h-1.587V202.283z"/>
	<path fill="#FFFFFF" stroke="#000000" stroke-miterlimit="10" d="M185.295,189.466h5.574v10.521h6.091v-10.521h5.599v30.064h-5.599
		v-12.161h-6.091v12.161h-5.574V189.466z"/>
	<path fill="#FFFFFF" stroke="#000000" stroke-miterlimit="10" d="M205.561,204.519c0-4.908,0.82-8.729,2.461-11.464
		s3.925-4.102,6.854-4.102c3.003,0,5.315,1.344,6.94,4.03c1.624,2.687,2.436,6.449,2.436,11.289c0,3.514-0.354,6.396-1.063,8.645
		c-0.71,2.249-1.735,3.999-3.076,5.25c-1.342,1.251-3.013,1.876-5.015,1.876c-2.034,0-3.718-0.54-5.051-1.62
		s-2.414-2.789-3.242-5.127C205.975,210.958,205.561,208.032,205.561,204.519z M211.135,204.56c0,3.035,0.338,5.216,1.015,6.542
		s1.598,1.989,2.763,1.989c1.197,0,2.125-0.649,2.781-1.948s0.984-3.63,0.984-6.993c0-2.83-0.343-4.897-1.027-6.203
		c-0.686-1.306-1.614-1.959-2.787-1.959c-1.124,0-2.026,0.663-2.707,1.989C211.475,199.303,211.135,201.497,211.135,204.56z"/>
	<path fill="#FFFFFF" stroke="#000000" stroke-miterlimit="10" d="M226.553,204.519c0-4.908,0.82-8.729,2.461-11.464
		s3.925-4.102,6.854-4.102c3.003,0,5.315,1.344,6.94,4.03c1.624,2.687,2.436,6.449,2.436,11.289c0,3.514-0.354,6.396-1.063,8.645
		c-0.71,2.249-1.735,3.999-3.076,5.25c-1.342,1.251-3.013,1.876-5.015,1.876c-2.034,0-3.718-0.54-5.051-1.62
		s-2.414-2.789-3.242-5.127C226.967,210.958,226.553,208.032,226.553,204.519z M232.127,204.56c0,3.035,0.338,5.216,1.015,6.542
		s1.598,1.989,2.763,1.989c1.197,0,2.125-0.649,2.781-1.948s0.984-3.63,0.984-6.993c0-2.83-0.343-4.897-1.027-6.203
		c-0.686-1.306-1.614-1.959-2.787-1.959c-1.124,0-2.026,0.663-2.707,1.989C232.467,199.303,232.127,201.497,232.127,204.56z"/>
	<path fill="#FFFFFF" stroke="#000000" stroke-miterlimit="10" d="M248.283,189.466h5.204l6.792,16.634v-16.634h5.254v30.064h-5.254
		l-6.755-16.507v16.507h-5.241V189.466z"/>
</g>
<path fill="#FBED25" stroke="#000000" stroke-miterlimit="10" d="M162.242,87.471c0-32.514-24.693-58.75-57.879-58.75
	c-39.736,0-63.247,30.906-63.247,58.288c0,18.599,10.242,34.806,25.394,43.289c-28.524-1.435-47.839-21.79-46.72-44.036
	c-1.633,32.473,21.71,59.916,54.855,61.583c39.686,1.997,64.719-27.689,66.095-55.037c1.021-20.3-10.317-38.362-27.415-46.884
	C141.885,45.925,162.242,65.197,162.242,87.471z M90.696,103.986c-9.376,0-16.977-7.601-16.977-16.977s7.601-16.977,16.977-16.977
	s16.977,7.601,16.977,16.977S100.072,103.986,90.696,103.986z"/>
</svg>
